<?xml version="1.0" encoding="UTF-8" standalone="no"?>
<!-- Created with Inkscape (http://www.inkscape.org/) -->

<svg
   width="144.19426mm"
   height="29.787132mm"
   viewBox="0 0 144.19426 29.787132"
   version="1.1"
   id="svg5"
   sodipodi:docname="/tmp/ink_ext_XXXXXX.svgWHJ821"
   xmlns:inkscape="http://www.inkscape.org/namespaces/inkscape"
   xmlns:sodipodi="http://sodipodi.sourceforge.net/DTD/sodipodi-0.dtd"
   xmlns="http://www.w3.org/2000/svg"
   xmlns:svg="http://www.w3.org/2000/svg">
  <sodipodi:namedview
     id="namedview7"
     pagecolor="#ffffff"
     bordercolor="#666666"
     borderopacity="1.0"
     inkscape:showpageshadow="2"
     inkscape:pageopacity="0.0"
     inkscape:pagecheckerboard="0"
     inkscape:deskcolor="#d1d1d1"
     inkscape:document-units="mm"
     showgrid="false"
     inkscape:zoom="0.93806818"
     inkscape:cx="270.23622"
     inkscape:cy="561.79285"
     inkscape:window-width="2558"
     inkscape:window-height="1418"
     inkscape:window-x="0"
     inkscape:window-y="20"
     inkscape:window-maximized="1"
     inkscape:current-layer="layer1" />
  <defs
     id="defs2">
    <marker
       style="overflow:visible"
       id="TriangleStart"
       refX="0"
       refY="0"
       orient="auto-start-reverse"
       inkscape:stockid="TriangleStart"
       markerWidth="17.323999"
       markerHeight="20.027746"
       viewBox="0 0 5.3244081 6.1553851"
       inkscape:isstock="true"
       inkscape:collect="always"
       preserveAspectRatio="xMidYMid">
      <path
         transform="scale(0.5)"
         style="fill:context-stroke;fill-rule:evenodd;stroke:context-stroke;stroke-width:1pt"
         d="M 5.77,0 -2.88,5 V -5 Z"
         id="path135" />
    </marker>
    <clipPath
       id="clipPath242">
      <path
         clip-rule="nonzero"
         d="M 10,2 H 21 V 14.785156 H 10 Z m 0,0"
         id="path6971" />
    </clipPath>
    <clipPath
       id="clipPath6807">
      <path
         clip-rule="nonzero"
         d="M 0,0 H 6 V 13.546875 H 0 Z m 0,0"
         id="path2385" />
    </clipPath>
    <clipPath
       id="clipPath154">
      <path
         clip-rule="nonzero"
         d="M 0,0 H 9 V 17.5625 H 0 Z m 0,0"
         id="path9375" />
    </clipPath>
  </defs>
  <g
     inkscape:label="Layer 1"
     inkscape:groupmode="layer"
     id="layer1"
     transform="translate(-50.898548,-61.277286)">
    <circle
       style="fill:none;fill-opacity:1;stroke:#000000;stroke-width:0.367001;stroke-linejoin:bevel;stroke-opacity:0.654902"
       id="path2039"
       cx="65.792114"
       cy="76.170853"
       r="14.710066" />
    <circle
       style="fill:none;fill-opacity:1;stroke:#000000;stroke-width:0.367001;stroke-linejoin:bevel;stroke-opacity:0.654902"
       id="circle2041"
       cx="180.19922"
       cy="76.170853"
       r="14.710066" />
    <path
       style="fill:none;stroke:#000000;stroke-width:0.261743;stroke-linecap:butt;stroke-linejoin:miter;stroke-dasharray:none;stroke-opacity:1;marker-end:url(#TriangleStart)"
       d="M 80.303169,75.735089 H 162.81066"
       id="path2047" />
    <g
       inkscape:label=""
       transform="translate(117.0682,65.694855)"
       id="g2839">
      <g
         fill="#000000"
         fill-opacity="1"
         id="g22"
         transform="matrix(0.352778,0,0,0.352778,0.225998,0.075274)">
        <g
           id="use20"
           transform="translate(0,8.8959999)">
          <path
             d="M 0.890625,2.625 C 0.75,3.25 0.65625,3.40625 -0.1875,3.40625 c -0.25,0 -0.453125,0 -0.453125,0.390625 C -0.640625,3.84375 -0.625,4 -0.390625,4 -0.125,4 0.171875,3.96875 0.4375,3.96875 H 1.328125 C 1.75,3.96875 2.8125,4 3.25,4 3.359375,4 3.609375,4 3.609375,3.640625 3.609375,3.40625 3.46875,3.40625 3.125,3.40625 c -0.953125,0 -1.015625,-0.140625 -1.015625,-0.3125 0,-0.25 0.921875,-3.796875 1.046875,-4.265625 0.234375,0.578125 0.796875,1.375 1.859375,1.375 2.34375,0 4.859375,-3.03125 4.859375,-6.0625 0,-1.90625 -1.078125,-3.25 -2.625,-3.25 -1.328125,0 -2.4375,1.28125 -2.671875,1.5625 -0.15625,-1.03125 -0.96875,-1.5625 -1.796875,-1.5625 -0.59375,0 -1.0625,0.296875 -1.453125,1.078125 -0.375,0.734375 -0.671875,2 -0.671875,2.078125 0,0.09375 0.09375,0.1875 0.234375,0.1875 0.15625,0 0.1875,-0.015625 0.3125,-0.5 0.3125,-1.21875 0.703125,-2.4375 1.53125,-2.4375 0.46875,0 0.625,0.34375 0.625,0.953125 0,0.5 -0.046875,0.703125 -0.140625,1.078125 z M 4.46875,-6.4375 C 4.609375,-7.015625 5.1875,-7.625 5.515625,-7.90625 5.75,-8.125 6.421875,-8.703125 7.203125,-8.703125 c 0.921875,0 1.328125,0.921875 1.328125,1.984375 0,1 -0.578125,3.328125 -1.09375,4.40625 -0.515625,1.109375 -1.46875,2.109375 -2.421875,2.109375 -1.40625,0 -1.625,-1.78125 -1.625,-1.859375 0,-0.0625 0.03125,-0.234375 0.0625,-0.328125 z m 0,0"
             id="path36" />
        </g>
      </g>
      <g
         clip-path="url(#clipPath242)"
         id="g30"
         transform="matrix(0.352778,0,0,0.352778,0.225998,0.075274)">
        <g
           fill="#000000"
           fill-opacity="1"
           id="g28">
          <g
             id="use24"
             transform="translate(10.154,11.995)">
            <path
               d="M 4.0625,-2.046875 C 4.0625,-2.125 4,-2.1875 3.921875,-2.1875 c -0.140625,0 -0.15625,0.046875 -0.21875,0.296875 -0.375,1.296875 -0.96875,1.75 -1.4375,1.75 -0.171875,0 -0.375,-0.046875 -0.375,-0.46875 0,-0.390625 0.171875,-0.828125 0.328125,-1.25 L 3.234375,-4.53125 C 3.265625,-4.640625 3.375,-4.90625 3.375,-5.171875 c 0,-0.609375 -0.4375,-1.15625 -1.140625,-1.15625 -1.3125,0 -1.84375,2.078125 -1.84375,2.203125 0,0.046875 0.046875,0.125 0.15625,0.125 C 0.671875,-4 0.6875,-4.0625 0.75,-4.265625 1.09375,-5.46875 1.640625,-6.03125 2.1875,-6.03125 c 0.140625,0 0.375,0 0.375,0.46875 0,0.375 -0.1875,0.84375 -0.296875,1.15625 l -1,2.671875 C 1.171875,-1.5 1.09375,-1.28125 1.09375,-1.015625 c 0,0.640625 0.4375,1.15625 1.125,1.15625 1.328125,0 1.84375,-2.09375 1.84375,-2.1875 z m -0.125,-6.90625 c 0,-0.21875 -0.171875,-0.46875 -0.484375,-0.46875 -0.328125,0 -0.703125,0.3125 -0.703125,0.6875 0,0.359375 0.3125,0.46875 0.484375,0.46875 0.375,0 0.703125,-0.375 0.703125,-0.6875 z m 0,0"
               id="path40" />
          </g>
          <g
             id="use26"
             transform="translate(14.945631,11.995)">
            <path
               d="m 5.015625,-4.546875 c 0.0625,-0.234375 0.0625,-0.4375 0.0625,-0.484375 0,-0.828125 -0.625,-1.296875 -1.265625,-1.296875 -1.453125,0 -2.21875,2.09375 -2.21875,2.203125 0,0.0625 0.0625,0.125 0.140625,0.125 0.109375,0 0.125,-0.0625 0.203125,-0.203125 0.578125,-1.390625 1.296875,-1.828125 1.828125,-1.828125 0.3125,0 0.46875,0.15625 0.46875,0.65625 0,0.34375 -0.046875,0.484375 -0.109375,0.734375 L 2.765625,0.78125 C 2.5,1.84375 1.828125,2.640625 1.03125,2.640625 c -0.0625,0 -0.359375,0 -0.625,-0.140625 C 0.75,2.421875 1.015625,2.15625 1.015625,1.8125 c 0,-0.234375 -0.171875,-0.46875 -0.484375,-0.46875 -0.375,0 -0.71875,0.3125 -0.71875,0.75 0,0.59375 0.625,0.828125 1.21875,0.828125 0.984375,0 2.296875,-0.734375 2.65625,-2.15625 z m 0.59375,-4.40625 c 0,-0.359375 -0.296875,-0.46875 -0.46875,-0.46875 -0.390625,0 -0.71875,0.375 -0.71875,0.6875 0,0.21875 0.171875,0.46875 0.484375,0.46875 0.328125,0 0.703125,-0.3125 0.703125,-0.6875 z m 0,0"
               id="path44" />
          </g>
        </g>
      </g>
    </g>
    <g
       inkscape:label=""
       transform="translate(64.769486,74.0069)"
       id="g2953">
      <g
         clip-path="url(#clipPath6807)"
         id="g2951"
         transform="matrix(0.352778,0,0,0.352778,-0.198437,0.0113332)">
        <g
           fill="#000000"
           fill-opacity="1"
           id="g2949">
          <g
             id="g2947"
             transform="translate(0,13.546)">
            <path
               d="m 5.84375,-2.953125 c 0,-0.109375 -0.078125,-0.1875 -0.203125,-0.1875 -0.1875,0 -0.203125,0.0625 -0.3125,0.40625 -0.53125,1.890625 -1.375,2.53125 -2.0625,2.53125 -0.25,0 -0.53125,-0.0625 -0.53125,-0.6875 0,-0.5625 0.234375,-1.171875 0.46875,-1.796875 l 1.4375,-3.84375 c 0.0625,-0.15625 0.21875,-0.53125 0.21875,-0.921875 0,-0.875 -0.625,-1.65625 -1.640625,-1.65625 -1.890625,0 -2.65625,3 -2.65625,3.15625 0,0.09375 0.078125,0.1875 0.21875,0.1875 0.1875,0 0.203125,-0.078125 0.296875,-0.375 0.484375,-1.734375 1.28125,-2.5625 2.078125,-2.5625 0.1875,0 0.546875,0.03125 0.546875,0.6875 0,0.53125 -0.28125,1.21875 -0.4375,1.671875 L 1.8125,-2.5 c -0.125,0.328125 -0.25,0.65625 -0.25,1.03125 0,0.9375 0.640625,1.671875 1.640625,1.671875 1.90625,0 2.640625,-3.015625 2.640625,-3.15625 z m -0.15625,-9.9375 c 0,-0.3125 -0.25,-0.6875 -0.703125,-0.6875 -0.484375,0 -1.015625,0.46875 -1.015625,1 0,0.515625 0.4375,0.6875 0.671875,0.6875 0.5625,0 1.046875,-0.546875 1.046875,-1 z m 0,0"
               id="path2945" />
          </g>
        </g>
      </g>
    </g>
    <g
       inkscape:label=""
       transform="translate(178.59801,72.463569)"
       id="g3076">
      <g
         clip-path="url(#clipPath154)"
         id="g3074"
         transform="matrix(0.352778,0,0,0.352778,0.0937066,0.0113332)">
        <g
           fill="#000000"
           fill-opacity="1"
           id="g3072">
          <g
             id="g3070"
             transform="translate(0,13.546)">
            <path
               d="M 7.234375,-6.546875 C 7.3125,-6.875 7.3125,-7.171875 7.3125,-7.25 c 0,-1.203125 -0.890625,-1.859375 -1.8125,-1.859375 -2.09375,0 -3.203125,3.015625 -3.203125,3.15625 0,0.109375 0.078125,0.1875 0.203125,0.1875 0.171875,0 0.1875,-0.078125 0.28125,-0.28125 0.828125,-2.015625 1.859375,-2.65625 2.65625,-2.65625 0.421875,0 0.65625,0.234375 0.65625,0.953125 0,0.5 -0.0625,0.703125 -0.140625,1.078125 l -1.96875,7.78125 c -0.390625,1.53125 -1.359375,2.6875 -2.5,2.6875 -0.078125,0 -0.515625,0 -0.90625,-0.203125 0.5,-0.109375 0.890625,-0.5 0.890625,-0.984375 0,-0.34375 -0.25,-0.671875 -0.703125,-0.671875 -0.53125,0 -1.03125,0.453125 -1.03125,1.078125 0,0.84375 0.90625,1.203125 1.75,1.203125 1.421875,0 3.3125,-1.0625 3.828125,-3.125 z m 0.84375,-6.34375 c 0,-0.515625 -0.4375,-0.6875 -0.6875,-0.6875 -0.546875,0 -1.03125,0.546875 -1.03125,1 0,0.3125 0.25,0.6875 0.703125,0.6875 0.484375,0 1.015625,-0.46875 1.015625,-1 z m 0,0"
               id="path3068" />
          </g>
        </g>
      </g>
    </g>
  </g>
</svg>
